WixMadeforDisplay_Rg.ufo
<glyph name="dollar" format="2">
	<unicode hex="0024"/>
	<advance width="660"/>
	<outline>
		<contour>
			<point x="61" y="124" type="line"/>
			<point x="126" y="43"/>
			<point x="219" y="-6"/>
			<point x="336" y="-6" type="curve" smooth="yes"/>
			<point x="480" y="-6"/>
			<point x="600" y="80"/>
			<point x="600" y="202" type="curve" smooth="yes"/>
			<point x="600" y="317"/>
			<point x="525" y="375"/>
			<point x="331" y="403" type="curve" smooth="yes"/>
			<point x="211" y="421"/>
			<point x="158" y="457"/>
			<point x="158" y="527" type="curve" smooth="yes"/>
			<point x="158" y="604"/>
			<point x="228" y="657"/>
			<point x="332" y="657" type="curve" smooth="yes"/>
			<point x="412" y="657"/>
			<point x="480" y="612"/>
			<point x="527" y="542" type="curve"/>
			<point x="580" y="591" type="line"/>
			<point x="519" y="672"/>
			<point x="431" y="721"/>
			<point x="332" y="721" type="curve" smooth="yes"/>
			<point x="192" y="721"/>
			<point x="87" y="639"/>
			<point x="87" y="527" type="curve" smooth="yes"/>
			<point x="87" y="417"/>
			<point x="157" y="364"/>
			<point x="335" y="337" type="curve" smooth="yes"/>
			<point x="471" y="317"/>
			<point x="529" y="277"/>
			<point x="529" y="202" type="curve" smooth="yes"/>
			<point x="529" y="115"/>
			<point x="444" y="58"/>
			<point x="336" y="58" type="curve" smooth="yes"/>
			<point x="238" y="58"/>
			<point x="165" y="103"/>
			<point x="114" y="173" type="curve"/>
		</contour>
		<contour>
			<point x="369" y="376" type="line"/>
			<point x="369" y="831" type="line"/>
			<point x="305" y="831" type="line"/>
			<point x="305" y="376" type="line"/>
		</contour>
		<contour>
			<point x="369" y="-116" type="line"/>
			<point x="369" y="366" type="line"/>
			<point x="305" y="366" type="line"/>
			<point x="305" y="-116" type="line"/>
		</contour>
	</outline>
</glyph>
<glyph name="quotesingle" format="2">
	<unicode hex="0027"/>
	<advance width="222"/>
	<outline>
		<contour>
			<point x="128" y="513" type="line"/>
			<point x="142" y="585"/>
			<point x="154" y="666"/>
			<point x="154" y="690" type="curve" smooth="yes"/>
			<point x="154" y="717"/>
			<point x="135" y="736"/>
			<point x="111" y="736" type="curve" smooth="yes"/>
			<point x="87" y="736"/>
			<point x="68" y="717"/>
			<point x="68" y="690" type="curve" smooth="yes"/>
			<point x="68" y="666"/>
			<point x="80" y="585"/>
			<point x="94" y="513" type="curve"/>
		</contour>
	</outline>
</glyph>
<glyph name="parenleft" format="2">
	<unicode hex="0028"/>
	<advance width="316"/>
	<outline>
		<contour>
			<point x="62" y="301" type="curve" smooth="yes"/>
			<point x="62" y="141"/>
			<point x="113" y="-8"/>
			<point x="207" y="-129" type="curve"/>
			<point x="278" y="-129" type="line"/>
			<point x="182" y="9"/>
			<point x="134" y="151"/>
			<point x="134" y="301" type="curve" smooth="yes"/>
			<point x="134" y="451"/>
			<point x="182" y="593"/>
			<point x="278" y="731" type="curve"/>
			<point x="207" y="731" type="line"/>
			<point x="113" y="610"/>
			<point x="62" y="461"/>
		</contour>
	</outline>
</glyph>
<glyph name="hyphen" format="2">
	<unicode hex="002D"/>
	<advance width="334"/>
	<outline>
		<contour>
			<point x="301" y="249" type="line"/>
			<point x="301" y="316" type="line"/>
			<point x="33" y="316" type="line"/>
			<point x="33" y="249" type="line"/>
		</contour>
	</outline>
</glyph>
<glyph name="five" format="2">
	<unicode hex="0035"/>
	<advance width="592"/>
	<outline>
		<contour>
			<point x="94" y="173" type="curve"/>
			<point x="41" y="126" type="line"/>
			<point x="99" y="34"/>
			<point x="185" y="-16"/>
			<point x="293" y="-16" type="curve" smooth="yes"/>
			<point x="438" y="-16"/>
			<point x="546" y="91"/>
			<point x="546" y="235" type="curve" smooth="yes"/>
			<point x="546" y="371"/>
			<point x="445" y="471"/>
			<point x="308" y="471" type="curve" smooth="yes"/>
			<point x="203" y="471"/>
			<point x="125" y="412"/>
			<point x="99" y="314" type="curve"/>
			<point x="130" y="311" type="line"/>
			<point x="170" y="370"/>
			<point x="225" y="406"/>
			<point x="297" y="406" type="curve" smooth="yes"/>
			<point x="396" y="406"/>
			<point x="468" y="334"/>
			<point x="468" y="235" type="curve" smooth="yes"/>
			<point x="468" y="130"/>
			<point x="396" y="49"/>
			<point x="293" y="49" type="curve" smooth="yes"/>
			<point x="205" y="49"/>
			<point x="141" y="99"/>
		</contour>
		<contour>
			<point x="498" y="651" type="line"/>
			<point x="498" y="715" type="line"/>
			<point x="107" y="715" type="line"/>
			<point x="61" y="311" type="line"/>
			<point x="130" y="311" type="line"/>
			<point x="170" y="669" type="line"/>
			<point x="145" y="651" type="line"/>
		</contour>
	</outline>
	<guideline x="21" y="0" angle="96.5"/>
	<guideline x="89" y="0" angle="96.5"/>
</glyph>
<glyph name="greater" format="2">
	<unicode hex="003E"/>
	<advance width="660"/>
	<outline>
		<contour>
			<point x="124" y="509" type="line"/>
			<point x="536" y="336" type="line"/>
			<point x="536" y="402" type="line"/>
			<point x="124" y="581" type="line"/>
		</contour>
		<contour>
			<point x="124" y="138" type="line"/>
			<point x="536" y="316" type="line"/>
			<point x="536" y="379" type="line"/>
			<point x="124" y="207" type="line"/>
		</contour>
	</outline>
</glyph>
<glyph name="C" format="2">
	<unicode hex="0043"/>
	<advance width="739"/>
	<outline>
		<contour>
			<point x="642" y="173" type="line"/>
			<point x="593" y="100"/>
			<point x="516" y="54"/>
			<point x="416" y="54" type="curve" smooth="yes"/>
			<point x="256" y="54"/>
			<point x="135" y="183"/>
			<point x="135" y="357" type="curve" smooth="yes"/>
			<point x="135" y="532"/>
			<point x="256" y="661"/>
			<point x="416" y="661" type="curve" smooth="yes"/>
			<point x="516" y="661"/>
			<point x="593" y="615"/>
			<point x="642" y="542" type="curve"/>
			<point x="698" y="595" type="line"/>
			<point x="636" y="679"/>
			<point x="535" y="731"/>
			<point x="416" y="731" type="curve" smooth="yes"/>
			<point x="211" y="731"/>
			<point x="55" y="571"/>
			<point x="55" y="357" type="curve" smooth="yes"/>
			<point x="55" y="144"/>
			<point x="208" y="-16"/>
			<point x="414" y="-16" type="curve" smooth="yes"/>
			<point x="533" y="-16"/>
			<point x="636" y="36"/>
			<point x="698" y="120" type="curve"/>
		</contour>
	</outline>
	<anchor name="bottom.UC" x="416" y="-50"/>
	<anchor name="top.UC" x="416" y="750"/>
	<guideline x="358"/>
	<guideline x="398"/>
	<guideline y="357"/>
</glyph>
<glyph name="O" format="2">
	<unicode hex="004F"/>
	<advance width="852"/>
	<outline>
		<contour>
			<point x="426" y="-16" type="curve" smooth="yes"/>
			<point x="639" y="-16"/>
			<point x="797" y="144"/>
			<point x="797" y="358" type="curve" smooth="yes"/>
			<point x="797" y="571"/>
			<point x="639" y="731"/>
			<point x="426" y="731" type="curve" smooth="yes"/>
			<point x="213" y="731"/>
			<point x="55" y="571"/>
			<point x="55" y="358" type="curve" smooth="yes"/>
			<point x="55" y="144"/>
			<point x="213" y="-16"/>
		</contour>
		<contour>
			<point x="426" y="54" type="curve" smooth="yes"/>
			<point x="255" y="54"/>
			<point x="135" y="181"/>
			<point x="135" y="358" type="curve" smooth="yes"/>
			<point x="135" y="534"/>
			<point x="255" y="661"/>
			<point x="426" y="661" type="curve" smooth="yes"/>
			<point x="597" y="661"/>
			<point x="717" y="534"/>
			<point x="717" y="358" type="curve" smooth="yes"/>
			<point x="717" y="181"/>
			<point x="597" y="54"/>
		</contour>
	</outline>
	<anchor name="bottom.UC" x="426" y="-50"/>
	<anchor name="top.UC" x="426" y="750"/>
	<anchor name="topright.UC" x="538" y="750"/>
</glyph>
<glyph name="P" format="2">
	<unicode hex="0050"/>
	<advance width="644"/>
	<outline>
		<contour>
			<point x="162" y="0" type="line"/>
			<point x="162" y="647" type="line"/>
			<point x="362" y="647" type="line" smooth="yes"/>
			<point x="459" y="647"/>
			<point x="518" y="598"/>
			<point x="518" y="515" type="curve" smooth="yes"/>
			<point x="518" y="432"/>
			<point x="459" y="383"/>
			<point x="362" y="383" type="curve" smooth="yes"/>
			<point x="152" y="383" type="line"/>
			<point x="152" y="315" type="line"/>
			<point x="362" y="315" type="line" smooth="yes"/>
			<point x="503" y="315"/>
			<point x="597" y="395"/>
			<point x="597" y="515" type="curve" smooth="yes"/>
			<point x="597" y="635"/>
			<point x="503" y="715"/>
			<point x="362" y="715" type="curve" smooth="yes"/>
			<point x="85" y="715" type="line"/>
			<point x="85" y="0" type="line"/>
		</contour>
	</outline>
	<guideline x="337"/>
	<guideline y="515"/>
	<guideline y="1000"/>
</glyph>
<glyph name="Q" format="2">
	<unicode hex="0051"/>
	<advance width="852"/>
	<outline>
		<contour>
			<point x="724" y="-36" type="line"/>
			<point x="772" y="11" type="line"/>
			<point x="528" y="265" type="line"/>
			<point x="480" y="218" type="line"/>
		</contour>
		<contour>
			<point x="426" y="-16" type="curve" smooth="yes"/>
			<point x="639" y="-16"/>
			<point x="797" y="144"/>
			<point x="797" y="358" type="curve" smooth="yes"/>
			<point x="797" y="571"/>
			<point x="639" y="731"/>
			<point x="426" y="731" type="curve" smooth="yes"/>
			<point x="213" y="731"/>
			<point x="55" y="571"/>
			<point x="55" y="358" type="curve" smooth="yes"/>
			<point x="55" y="144"/>
			<point x="213" y="-16"/>
		</contour>
		<contour>
			<point x="426" y="54" type="curve" smooth="yes"/>
			<point x="255" y="54"/>
			<point x="135" y="181"/>
			<point x="135" y="358" type="curve" smooth="yes"/>
			<point x="135" y="534"/>
			<point x="255" y="661"/>
			<point x="426" y="661" type="curve" smooth="yes"/>
			<point x="597" y="661"/>
			<point x="717" y="534"/>
			<point x="717" y="358" type="curve" smooth="yes"/>
			<point x="717" y="177"/>
			<point x="600" y="54"/>
		</contour>
	</outline>
	<guideline x="747" y="0" angle="46.27"/>
</glyph>
<glyph name="U" format="2">
	<unicode hex="0055"/>
	<advance width="722"/>
	<outline>
		<contour>
			<point x="647" y="715" type="line"/>
			<point x="571" y="715" type="line"/>
			<point x="571" y="282" type="line" smooth="yes"/>
			<point x="571" y="134"/>
			<point x="494" y="54"/>
			<point x="361" y="54" type="curve" smooth="yes"/>
			<point x="229" y="54"/>
			<point x="152" y="134"/>
			<point x="152" y="282" type="curve" smooth="yes"/>
			<point x="152" y="715" type="line"/>
			<point x="75" y="715" type="line"/>
			<point x="75" y="282" type="line" smooth="yes"/>
			<point x="75" y="94"/>
			<point x="183" y="-16"/>
			<point x="361" y="-16" type="curve" smooth="yes"/>
			<point x="540" y="-16"/>
			<point x="647" y="94"/>
			<point x="647" y="282" type="curve" smooth="yes"/>
		</contour>
	</outline>
	<anchor name="bottom.UC" x="362" y="-50"/>
	<anchor name="ogonek.UC.round" x="402" y="-30"/>
	<anchor name="top.UC" x="361" y="750"/>
	<anchor name="topright.UC" x="586" y="750"/>
</glyph>
<glyph name="W" format="2">
	<unicode hex="0057"/>
	<advance width="1052"/>
	<outline>
		<contour>
			<point x="793" y="0" type="line"/>
			<point x="1012" y="715" type="line"/>
			<point x="933" y="715" type="line"/>
			<point x="733" y="40" type="line"/>
			<point x="763" y="40" type="line"/>
			<point x="570" y="715" type="line"/>
			<point x="483" y="715" type="line"/>
			<point x="290" y="40" type="line"/>
			<point x="323" y="40" type="line"/>
			<point x="123" y="715" type="line"/>
			<point x="40" y="715" type="line"/>
			<point x="259" y="0" type="line"/>
			<point x="352" y="0" type="line"/>
			<point x="530" y="625" type="line"/>
			<point x="522" y="625" type="line"/>
			<point x="700" y="0" type="line"/>
		</contour>
	</outline>
	<anchor name="top.UC" x="526" y="750"/>
	<guideline x="695" y="0" angle="74.04"/>
	<guideline x="769" y="0" angle="74.04"/>
	<guideline x="277" y="0" angle="105.96"/>
	<guideline x="347" y="0" angle="105.96"/>
	<guideline x="709" y="0" angle="107.03"/>
	<guideline x="788" y="0" angle="107.03"/>
</glyph>
<glyph name="c" format="2">
	<unicode hex="0063"/>
	<advance width="545"/>
	<outline>
		<contour>
			<point x="455" y="128" type="line"/>
			<point x="423" y="80"/>
			<point x="376" y="49"/>
			<point x="307" y="49" type="curve" smooth="yes"/>
			<point x="199" y="49"/>
			<point x="125" y="130"/>
			<point x="125" y="246" type="curve" smooth="yes"/>
			<point x="125" y="362"/>
			<point x="199" y="443"/>
			<point x="307" y="443" type="curve" smooth="yes"/>
			<point x="376" y="443"/>
			<point x="423" y="412"/>
			<point x="455" y="364" type="curve"/>
			<point x="508" y="413" type="line"/>
			<point x="462" y="472"/>
			<point x="393" y="508"/>
			<point x="307" y="508" type="curve" smooth="yes"/>
			<point x="156" y="508"/>
			<point x="47" y="398"/>
			<point x="47" y="246" type="curve" smooth="yes"/>
			<point x="47" y="94"/>
			<point x="155" y="-16"/>
			<point x="306" y="-16" type="curve" smooth="yes"/>
			<point x="392" y="-16"/>
			<point x="462" y="20"/>
			<point x="508" y="79" type="curve"/>
		</contour>
	</outline>
	<anchor name="top.LC" x="307" y="544"/>
	<anchor name="bottom.LC" x="307" y="-50"/>
</glyph>
<glyph name="e" format="2">
	<unicode hex="0065"/>
	<advance width="601"/>
	<outline>
		<contour>
			<point x="486" y="140" type="line"/>
			<point x="444" y="79"/>
			<point x="389" y="49"/>
			<point x="319" y="49" type="curve" smooth="yes"/>
			<point x="205" y="49"/>
			<point x="125" y="130"/>
			<point x="125" y="247" type="curve" smooth="yes"/>
			<point x="125" y="362"/>
			<point x="199" y="443"/>
			<point x="307" y="443" type="curve" smooth="yes"/>
			<point x="405" y="443"/>
			<point x="478" y="364"/>
			<point x="478" y="249" type="curve" smooth="yes"/>
			<point x="478" y="243" type="line"/>
			<point x="554" y="243" type="line"/>
			<point x="554" y="249" type="line" smooth="yes"/>
			<point x="554" y="400"/>
			<point x="450" y="508"/>
			<point x="307" y="508" type="curve" smooth="yes"/>
			<point x="156" y="508"/>
			<point x="47" y="398"/>
			<point x="47" y="246" type="curve" smooth="yes"/>
			<point x="47" y="94"/>
			<point x="162" y="-16"/>
			<point x="318" y="-16" type="curve" smooth="yes"/>
			<point x="412" y="-16"/>
			<point x="486" y="24"/>
			<point x="538" y="91" type="curve"/>
		</contour>
		<contour>
			<point x="554" y="220" type="line"/>
			<point x="554" y="249" type="line"/>
			<point x="538" y="281" type="line"/>
			<point x="109" y="281" type="line"/>
			<point x="109" y="220" type="line"/>
		</contour>
	</outline>
	<anchor name="bottom.LC" x="307" y="-50"/>
	<anchor name="ogonek.LC.round" x="382" y="-30"/>
	<anchor name="top.LC" x="307" y="544"/>
	<guideline x="0" y="593" angle="43.3"/>
</glyph>
<glyph name="f" format="2">
	<unicode hex="0066"/>
	<advance width="380"/>
	<outline>
		<contour>
			<point x="206" y="0" type="line"/>
			<point x="206" y="597" type="line" smooth="yes"/>
			<point x="206" y="639"/>
			<point x="224" y="658"/>
			<point x="267" y="658" type="curve" smooth="yes"/>
			<point x="350" y="658" type="line"/>
			<point x="350" y="720" type="line"/>
			<point x="251" y="720" type="line" smooth="yes"/>
			<point x="171" y="720"/>
			<point x="132" y="681"/>
			<point x="132" y="601" type="curve" smooth="yes"/>
			<point x="132" y="0" type="line"/>
		</contour>
		<contour>
			<point x="350" y="429" type="line"/>
			<point x="350" y="492" type="line"/>
			<point x="30" y="492" type="line"/>
			<point x="30" y="429" type="line"/>
		</contour>
	</outline>
	<guideline x="336"/>
</glyph>
<glyph name="g" format="2">
	<unicode hex="0067"/>
	<advance width="633"/>
	<outline>
		<contour>
			<point x="563" y="42" type="curve" smooth="yes"/>
			<point x="563" y="492" type="line"/>
			<point x="490" y="492" type="line"/>
			<point x="490" y="343" type="line"/>
			<point x="508" y="343" type="line"/>
			<point x="488" y="455"/>
			<point x="395" y="508"/>
			<point x="297" y="508" type="curve" smooth="yes"/>
			<point x="157" y="508"/>
			<point x="47" y="399"/>
			<point x="47" y="250" type="curve" smooth="yes"/>
			<point x="47" y="99"/>
			<point x="154" y="-6"/>
			<point x="301" y="-6" type="curve" smooth="yes"/>
			<point x="431" y="-6"/>
			<point x="530" y="81"/>
			<point x="514" y="203" type="curve"/>
			<point x="499" y="223" type="line"/>
			<point x="491" y="127"/>
			<point x="408" y="59"/>
			<point x="309" y="59" type="curve" smooth="yes"/>
			<point x="199" y="59"/>
			<point x="125" y="138"/>
			<point x="125" y="250" type="curve" smooth="yes"/>
			<point x="125" y="360"/>
			<point x="200" y="443"/>
			<point x="306" y="443" type="curve" smooth="yes"/>
			<point x="402" y="443"/>
			<point x="489" y="370"/>
			<point x="489" y="231" type="curve" smooth="yes"/>
			<point x="489" y="42" type="line" smooth="yes"/>
			<point x="489" y="-68"/>
			<point x="415" y="-145"/>
			<point x="307" y="-145" type="curve" smooth="yes"/>
			<point x="228" y="-145"/>
			<point x="175" y="-114"/>
			<point x="139" y="-65" type="curve"/>
			<point x="87" y="-115" type="line"/>
			<point x="136" y="-174"/>
			<point x="213" y="-210"/>
			<point x="307" y="-210" type="curve" smooth="yes"/>
			<point x="454" y="-210"/>
			<point x="563" y="-104"/>
		</contour>
	</outline>
	<anchor name="top.LC" x="307" y="544"/>
</glyph>
<glyph name="h" format="2">
	<unicode hex="0068"/>
	<advance width="584"/>
	<outline>
		<contour>
			<point x="521" y="0" type="line"/>
			<point x="521" y="292" type="line" smooth="yes"/>
			<point x="521" y="432"/>
			<point x="447" y="508"/>
			<point x="327" y="508" type="curve" smooth="yes"/>
			<point x="237" y="508"/>
			<point x="154" y="464"/>
			<point x="131" y="343" type="curve"/>
			<point x="144" y="343" type="line"/>
			<point x="144" y="720" type="line"/>
			<point x="70" y="720" type="line"/>
			<point x="70" y="0" type="line"/>
			<point x="144" y="0" type="line"/>
			<point x="144" y="221" type="line" smooth="yes"/>
			<point x="144" y="377"/>
			<point x="226" y="443"/>
			<point x="314" y="443" type="curve" smooth="yes"/>
			<point x="395" y="443"/>
			<point x="447" y="389"/>
			<point x="447" y="284" type="curve" smooth="yes"/>
			<point x="447" y="0" type="line"/>
		</contour>
	</outline>
	<anchor name="bottom.LC" x="295" y="-50"/>
</glyph>
<glyph name="i" format="2">
	<unicode hex="0069"/>
	<advance width="214"/>
	<outline>
		<contour>
			<point x="144" y="0" type="line"/>
			<point x="144" y="492" type="line"/>
			<point x="70" y="492" type="line"/>
			<point x="70" y="0" type="line"/>
		</contour>
		<contour>
			<point x="107" y="624" type="curve" smooth="yes"/>
			<point x="137" y="624"/>
			<point x="161" y="648"/>
			<point x="161" y="677" type="curve" smooth="yes"/>
			<point x="161" y="707"/>
			<point x="137" y="731"/>
			<point x="107" y="731" type="curve" smooth="yes"/>
			<point x="77" y="731"/>
			<point x="53" y="707"/>
			<point x="53" y="677" type="curve" smooth="yes"/>
			<point x="53" y="648"/>
			<point x="77" y="624"/>
		</contour>
	</outline>
	<anchor name="bottom.LC" x="107" y="-50"/>
	<anchor name="ogonek.LC" x="47" y="-30"/>
	<guideline x="102"/>
	<guideline y="492"/>
</glyph>
<glyph name="m" format="2">
	<unicode hex="006D"/>
	<advance width="921"/>
	<outline>
		<contour>
			<point x="858" y="0" type="line"/>
			<point x="858" y="292" type="line" smooth="yes"/>
			<point x="858" y="432"/>
			<point x="788" y="508"/>
			<point x="669" y="508" type="curve" smooth="yes"/>
			<point x="584" y="508"/>
			<point x="502" y="465"/>
			<point x="475" y="357" type="curve"/>
			<point x="488" y="358" type="line"/>
			<point x="470" y="455"/>
			<point x="409" y="508"/>
			<point x="317" y="508" type="curve" smooth="yes"/>
			<point x="238" y="508"/>
			<point x="163" y="470"/>
			<point x="135" y="367" type="curve"/>
			<point x="143" y="366" type="line"/>
			<point x="143" y="492" type="line"/>
			<point x="70" y="492" type="line"/>
			<point x="70" y="0" type="line"/>
			<point x="144" y="0" type="line"/>
			<point x="144" y="221" type="line" smooth="yes"/>
			<point x="144" y="377"/>
			<point x="221" y="443"/>
			<point x="304" y="443" type="curve" smooth="yes"/>
			<point x="379" y="443"/>
			<point x="427" y="389"/>
			<point x="427" y="284" type="curve" smooth="yes"/>
			<point x="427" y="0" type="line"/>
			<point x="501" y="0" type="line"/>
			<point x="501" y="221" type="line" smooth="yes"/>
			<point x="501" y="377"/>
			<point x="578" y="443"/>
			<point x="661" y="443" type="curve" smooth="yes"/>
			<point x="736" y="443"/>
			<point x="784" y="389"/>
			<point x="784" y="284" type="curve" smooth="yes"/>
			<point x="784" y="0" type="line"/>
		</contour>
	</outline>
</glyph>
<glyph name="q" format="2">
	<unicode hex="0071"/>
	<advance width="633"/>
	<outline>
		<contour>
			<point x="563" y="-194" type="line"/>
			<point x="563" y="492" type="line"/>
			<point x="490" y="492" type="line"/>
			<point x="490" y="343" type="line"/>
			<point x="508" y="343" type="line"/>
			<point x="491" y="443"/>
			<point x="405" y="508"/>
			<point x="297" y="508" type="curve" smooth="yes"/>
			<point x="153" y="508"/>
			<point x="47" y="395"/>
			<point x="47" y="246" type="curve" smooth="yes"/>
			<point x="47" y="94"/>
			<point x="153" y="-16"/>
			<point x="301" y="-16" type="curve" smooth="yes"/>
			<point x="435" y="-16"/>
			<point x="528" y="75"/>
			<point x="513" y="193" type="curve"/>
			<point x="499" y="213" type="line"/>
			<point x="491" y="118"/>
			<point x="410" y="49"/>
			<point x="309" y="49" type="curve" smooth="yes"/>
			<point x="200" y="49"/>
			<point x="125" y="131"/>
			<point x="125" y="246" type="curve" smooth="yes"/>
			<point x="125" y="360"/>
			<point x="200" y="443"/>
			<point x="306" y="443" type="curve" smooth="yes"/>
			<point x="414" y="443"/>
			<point x="489" y="356"/>
			<point x="489" y="231" type="curve" smooth="yes"/>
			<point x="489" y="-194" type="line"/>
		</contour>
	</outline>
</glyph>
<glyph name="w" format="2">
	<unicode hex="0077"/>
	<advance width="772"/>
	<outline>
		<contour>
			<point x="594" y="0" type="line"/>
			<point x="752" y="492" type="line"/>
			<point x="678" y="492" type="line"/>
			<point x="538" y="28" type="line"/>
			<point x="567" y="28" type="line"/>
			<point x="427" y="492" type="line"/>
			<point x="349" y="492" type="line"/>
			<point x="208" y="28" type="line"/>
			<point x="237" y="28" type="line"/>
			<point x="97" y="492" type="line"/>
			<point x="20" y="492" type="line"/>
			<point x="178" y="0" type="line"/>
			<point x="264" y="0" type="line"/>
			<point x="394" y="430" type="line"/>
			<point x="378" y="430" type="line"/>
			<point x="508" y="0" type="line"/>
		</contour>
	</outline>
	<anchor name="top.LC" x="386" y="544"/>
</glyph>
<glyph name="sterling" format="2">
	<unicode hex="00A3"/>
	<advance width="660"/>
	<outline>
		<contour>
			<point x="612" y="0" type="line"/>
			<point x="612" y="64" type="line"/>
			<point x="65" y="64" type="line"/>
			<point x="65" y="0" type="line"/>
		</contour>
		<contour>
			<point x="502" y="320" type="line"/>
			<point x="502" y="384" type="line"/>
			<point x="75" y="384" type="line"/>
			<point x="75" y="320" type="line"/>
		</contour>
		<contour>
			<point x="612" y="611" type="line"/>
			<point x="562" y="688"/>
			<point x="493" y="731"/>
			<point x="404" y="731" type="curve" smooth="yes"/>
			<point x="267" y="731"/>
			<point x="185" y="634"/>
			<point x="185" y="491" type="curve" smooth="yes"/>
			<point x="185" y="33" type="line"/>
			<point x="259" y="33" type="line"/>
			<point x="259" y="493" type="line" smooth="yes"/>
			<point x="259" y="598"/>
			<point x="311" y="666"/>
			<point x="404" y="666" type="curve" smooth="yes"/>
			<point x="466" y="666"/>
			<point x="514" y="634"/>
			<point x="559" y="562" type="curve"/>
		</contour>
	</outline>
	<guideline y="64"/>
</glyph>
<glyph name="copyright" format="2">
	<unicode hex="00A9"/>
	<advance width="852"/>
	<outline>
		<contour>
			<point x="551" y="265" type="line"/>
			<point x="524" y="225"/>
			<point x="483" y="201"/>
			<point x="430" y="201" type="curve" smooth="yes"/>
			<point x="347" y="201"/>
			<point x="284" y="268"/>
			<point x="284" y="358" type="curve" smooth="yes"/>
			<point x="284" y="450"/>
			<point x="347" y="516"/>
			<point x="430" y="516" type="curve" smooth="yes"/>
			<point x="483" y="516"/>
			<point x="524" y="492"/>
			<point x="551" y="453" type="curve"/>
			<point x="594" y="495" type="line"/>
			<point x="558" y="542"/>
			<point x="500" y="572"/>
			<point x="430" y="572" type="curve" smooth="yes"/>
			<point x="308" y="572"/>
			<point x="218" y="482"/>
			<point x="218" y="358" type="curve" smooth="yes"/>
			<point x="218" y="236"/>
			<point x="306" y="145"/>
			<point x="428" y="145" type="curve" smooth="yes"/>
			<point x="498" y="145"/>
			<point x="558" y="175"/>
			<point x="594" y="222" type="curve"/>
		</contour>
		<contour>
			<point x="426" y="-26" type="curve" smooth="yes"/>
			<point x="638" y="-26"/>
			<point x="807" y="145"/>
			<point x="807" y="358" type="curve" smooth="yes"/>
			<point x="807" y="571"/>
			<point x="638" y="742"/>
			<point x="426" y="742" type="curve" smooth="yes"/>
			<point x="214" y="742"/>
			<point x="45" y="571"/>
			<point x="45" y="358" type="curve" smooth="yes"/>
			<point x="45" y="145"/>
			<point x="214" y="-26"/>
		</contour>
		<contour>
			<point x="426" y="37" type="curve" smooth="yes"/>
			<point x="250" y="37"/>
			<point x="109" y="179"/>
			<point x="109" y="358" type="curve" smooth="yes"/>
			<point x="109" y="537"/>
			<point x="250" y="679"/>
			<point x="426" y="679" type="curve" smooth="yes"/>
			<point x="602" y="679"/>
			<point x="743" y="537"/>
			<point x="743" y="358" type="curve" smooth="yes"/>
			<point x="743" y="179"/>
			<point x="602" y="37"/>
		</contour>
	</outline>
</glyph>
<glyph name="degree" format="2">
	<unicode hex="00B0"/>
	<advance width="448"/>
	<outline>
		<contour>
			<point x="224" y="391" type="curve" smooth="yes"/>
			<point x="317" y="391"/>
			<point x="393" y="468"/>
			<point x="393" y="561" type="curve" smooth="yes"/>
			<point x="393" y="655"/>
			<point x="317" y="731"/>
			<point x="224" y="731" type="curve" smooth="yes"/>
			<point x="131" y="731"/>
			<point x="55" y="655"/>
			<point x="55" y="561" type="curve" smooth="yes"/>
			<point x="55" y="468"/>
			<point x="131" y="391"/>
		</contour>
		<contour>
			<point x="224" y="452" type="curve" smooth="yes"/>
			<point x="166" y="452"/>
			<point x="120" y="500"/>
			<point x="120" y="561" type="curve" smooth="yes"/>
			<point x="120" y="622"/>
			<point x="166" y="670"/>
			<point x="224" y="670" type="curve" smooth="yes"/>
			<point x="282" y="670"/>
			<point x="328" y="622"/>
			<point x="328" y="561" type="curve" smooth="yes"/>
			<point x="328" y="500"/>
			<point x="282" y="452"/>
		</contour>
	</outline>
</glyph>
<glyph name="eth" format="2">
	<unicode hex="00F0"/>
	<advance width="614"/>
	<outline>
		<contour>
			<point x="529" y="236" type="line"/>
			<point x="529" y="381"/>
			<point x="447" y="488"/>
			<point x="303" y="488" type="curve" smooth="yes"/>
			<point x="158" y="488"/>
			<point x="47" y="381"/>
			<point x="47" y="236" type="curve" smooth="yes"/>
			<point x="47" y="91"/>
			<point x="158" y="-16"/>
			<point x="307" y="-16" type="curve" smooth="yes"/>
			<point x="456" y="-16"/>
			<point x="567" y="83"/>
			<point x="567" y="279" type="curve" smooth="yes"/>
			<point x="567" y="478"/>
			<point x="457" y="654"/>
			<point x="266" y="759" type="curve"/>
			<point x="211" y="731" type="line"/>
			<point x="412" y="607"/>
			<point x="499" y="457"/>
			<point x="499" y="236" type="curve"/>
		</contour>
		<contour>
			<point x="307" y="49" type="curve" smooth="yes"/>
			<point x="200" y="49"/>
			<point x="125" y="127"/>
			<point x="125" y="236" type="curve" smooth="yes"/>
			<point x="125" y="345"/>
			<point x="200" y="423"/>
			<point x="307" y="423" type="curve" smooth="yes"/>
			<point x="414" y="423"/>
			<point x="489" y="345"/>
			<point x="489" y="236" type="curve" smooth="yes"/>
			<point x="489" y="127"/>
			<point x="414" y="49"/>
		</contour>
		<contour>
			<point x="503" y="688" type="line"/>
			<point x="474" y="742" type="line"/>
			<point x="188" y="599" type="line"/>
			<point x="216" y="545" type="line"/>
		</contour>
	</outline>
	<guideline x="0" y="628" angle="153.43"/>
</glyph>
<glyph name="divide" format="2">
	<unicode hex="00F7"/>
	<advance width="660"/>
	<outline>
		<contour>
			<point x="555" y="326" type="line"/>
			<point x="555" y="388" type="line"/>
			<point x="105" y="388" type="line"/>
			<point x="105" y="326" type="line"/>
		</contour>
		<contour>
			<point x="330" y="458" type="curve" smooth="yes"/>
			<point x="360" y="458"/>
			<point x="384" y="482"/>
			<point x="384" y="511" type="curve" smooth="yes"/>
			<point x="384" y="541"/>
			<point x="360" y="565"/>
			<point x="330" y="565" type="curve" smooth="yes"/>
			<point x="300" y="565"/>
			<point x="276" y="541"/>
			<point x="276" y="511" type="curve" smooth="yes"/>
			<point x="276" y="482"/>
			<point x="300" y="458"/>
		</contour>
		<contour>
			<point x="330" y="149" type="curve" smooth="yes"/>
			<point x="360" y="149"/>
			<point x="384" y="173"/>
			<point x="384" y="202" type="curve" smooth="yes"/>
			<point x="384" y="232"/>
			<point x="360" y="256"/>
			<point x="330" y="256" type="curve" smooth="yes"/>
			<point x="300" y="256"/>
			<point x="276" y="232"/>
			<point x="276" y="202" type="curve" smooth="yes"/>
			<point x="276" y="173"/>
			<point x="300" y="149"/>
		</contour>
	</outline>
	<guideline x="325"/>
	<guideline y="357"/>
</glyph>
<glyph name="thorn" format="2">
	<unicode hex="00FE"/>
	<advance width="633"/>
	<outline>
		<contour>
			<point x="144" y="-194" type="line"/>
			<point x="144" y="231" type="line" smooth="yes"/>
			<point x="144" y="356"/>
			<point x="222" y="443"/>
			<point x="330" y="443" type="curve" smooth="yes"/>
			<point x="436" y="443"/>
			<point x="508" y="360"/>
			<point x="508" y="246" type="curve" smooth="yes"/>
			<point x="508" y="131"/>
			<point x="433" y="49"/>
			<point x="324" y="49" type="curve" smooth="yes"/>
			<point x="223" y="49"/>
			<point x="142" y="118"/>
			<point x="134" y="213" type="curve"/>
			<point x="120" y="193" type="line"/>
			<point x="105" y="75"/>
			<point x="198" y="-16"/>
			<point x="332" y="-16" type="curve" smooth="yes"/>
			<point x="480" y="-16"/>
			<point x="586" y="94"/>
			<point x="586" y="246" type="curve" smooth="yes"/>
			<point x="586" y="395"/>
			<point x="483" y="508"/>
			<point x="339" y="508" type="curve" smooth="yes"/>
			<point x="233" y="508"/>
			<point x="143" y="441"/>
			<point x="126" y="343" type="curve"/>
			<point x="144" y="343" type="line"/>
			<point x="144" y="720" type="line"/>
			<point x="70" y="720" type="line"/>
			<point x="70" y="-194" type="line"/>
		</contour>
	</outline>
</glyph>
<glyph name="hbar" format="2">
	<unicode hex="0127"/>
	<advance width="610"/>
	<outline>
		<contour>
			<point x="335" y="573" type="line"/>
			<point x="335" y="636" type="line"/>
			<point x="15" y="636" type="line"/>
			<point x="15" y="573" type="line"/>
		</contour>
		<contour>
			<point x="547" y="0" type="line"/>
			<point x="547" y="292" type="line" smooth="yes"/>
			<point x="547" y="432"/>
			<point x="473" y="508"/>
			<point x="353" y="508" type="curve" smooth="yes"/>
			<point x="263" y="508"/>
			<point x="180" y="464"/>
			<point x="157" y="343" type="curve"/>
			<point x="170" y="343" type="line"/>
			<point x="170" y="720" type="line"/>
			<point x="96" y="720" type="line"/>
			<point x="96" y="0" type="line"/>
			<point x="170" y="0" type="line"/>
			<point x="170" y="221" type="line" smooth="yes"/>
			<point x="170" y="377"/>
			<point x="252" y="443"/>
			<point x="340" y="443" type="curve" smooth="yes"/>
			<point x="421" y="443"/>
			<point x="473" y="389"/>
			<point x="473" y="284" type="curve" smooth="yes"/>
			<point x="473" y="0" type="line"/>
		</contour>
	</outline>
</glyph>
<glyph name="oe" format="2">
	<unicode hex="0153"/>
	<advance width="1033"/>
	<outline>
		<contour>
			<point x="307" y="-16" type="curve" smooth="yes"/>
			<point x="452" y="-16"/>
			<point x="557" y="94"/>
			<point x="557" y="246" type="curve" smooth="yes"/>
			<point x="557" y="398"/>
			<point x="452" y="508"/>
			<point x="307" y="508" type="curve" smooth="yes"/>
			<point x="156" y="508"/>
			<point x="47" y="398"/>
			<point x="47" y="246" type="curve" smooth="yes"/>
			<point x="47" y="94"/>
			<point x="156" y="-16"/>
		</contour>
		<contour>
			<point x="307" y="49" type="curve" smooth="yes"/>
			<point x="199" y="49"/>
			<point x="125" y="130"/>
			<point x="125" y="246" type="curve" smooth="yes"/>
			<point x="125" y="362"/>
			<point x="199" y="443"/>
			<point x="307" y="443" type="curve" smooth="yes"/>
			<point x="415" y="443"/>
			<point x="489" y="362"/>
			<point x="489" y="246" type="curve" smooth="yes"/>
			<point x="489" y="130"/>
			<point x="415" y="49"/>
		</contour>
		<contour>
			<point x="918" y="140" type="line"/>
			<point x="876" y="79"/>
			<point x="821" y="49"/>
			<point x="751" y="49" type="curve" smooth="yes"/>
			<point x="637" y="49"/>
			<point x="557" y="130"/>
			<point x="557" y="247" type="curve" smooth="yes"/>
			<point x="557" y="362"/>
			<point x="631" y="443"/>
			<point x="739" y="443" type="curve" smooth="yes"/>
			<point x="837" y="443"/>
			<point x="910" y="364"/>
			<point x="910" y="249" type="curve" smooth="yes"/>
			<point x="910" y="243" type="line"/>
			<point x="986" y="243" type="line"/>
			<point x="986" y="249" type="line" smooth="yes"/>
			<point x="986" y="400"/>
			<point x="882" y="508"/>
			<point x="739" y="508" type="curve" smooth="yes"/>
			<point x="594" y="508"/>
			<point x="489" y="398"/>
			<point x="489" y="246" type="curve" smooth="yes"/>
			<point x="489" y="94"/>
			<point x="600" y="-16"/>
			<point x="750" y="-16" type="curve" smooth="yes"/>
			<point x="844" y="-16"/>
			<point x="918" y="24"/>
			<point x="970" y="91" type="curve"/>
		</contour>
		<contour>
			<point x="986" y="220" type="line"/>
			<point x="986" y="249" type="line"/>
			<point x="970" y="281" type="line"/>
			<point x="541" y="281" type="line"/>
			<point x="541" y="220" type="line"/>
		</contour>
	</outline>
</glyph>
<glyph name="gravecomb" format="2">
	<unicode hex="0300"/>
	<outline>
		<contour>
			<point x="-15" y="587" type="line"/>
			<point x="52" y="587" type="line"/>
			<point x="-62" y="761" type="line"/>
			<point x="-150" y="761" type="line"/>
		</contour>
	</outline>
	<anchor name="_top.LC" x="0" y="544"/>
</glyph>
<glyph name="caroncomb" format="2">
	<unicode hex="030C"/>
	<outline>
		<contour>
			<point x="-157" y="761" type="line"/>
			<point x="-33" y="587" type="line"/>
			<point x="33" y="587" type="line"/>
			<point x="157" y="761" type="line"/>
			<point x="90" y="761" type="line"/>
			<point x="-31" y="603" type="line"/>
			<point x="34" y="603" type="line"/>
			<point x="-87" y="761" type="line"/>
		</contour>
	</outline>
	<anchor name="_top.LC" x="0" y="544"/>
</glyph>
<glyph name="commaturnedabovecomb" format="2">
	<unicode hex="0312"/>
	<outline>
		<contour>
			<point x="0" y="763" type="line"/>
			<point x="-26" y="728"/>
			<point x="-49" y="676"/>
			<point x="-49" y="637" type="curve" smooth="yes"/>
			<point x="-49" y="606"/>
			<point x="-28" y="583"/>
			<point x="2" y="583" type="curve" smooth="yes"/>
			<point x="28" y="583"/>
			<point x="49" y="604"/>
			<point x="49" y="629" type="curve" smooth="yes"/>
			<point x="49" y="655"/>
			<point x="25" y="675"/>
			<point x="-4" y="675" type="curve"/>
			<point x="13" y="656" type="line"/>
			<point x="11" y="683"/>
			<point x="28" y="727"/>
			<point x="52" y="763" type="curve"/>
		</contour>
	</outline>
	<anchor name="_top.LC" x="0" y="544"/>
</glyph>
<glyph name="dotbelowcomb" format="2">
	<unicode hex="0323"/>
	<outline>
		<contour>
			<point x="0" y="-237" type="curve" smooth="yes"/>
			<point x="30" y="-237"/>
			<point x="54" y="-213"/>
			<point x="54" y="-184" type="curve" smooth="yes"/>
			<point x="54" y="-154"/>
			<point x="30" y="-130"/>
			<point x="0" y="-130" type="curve" smooth="yes"/>
			<point x="-30" y="-130"/>
			<point x="-54" y="-154"/>
			<point x="-54" y="-184" type="curve" smooth="yes"/>
			<point x="-54" y="-213"/>
			<point x="-30" y="-237"/>
		</contour>
	</outline>
	<anchor name="_bottom.LC" x="0" y="-50"/>
</glyph>
<glyph name="Dje" format="2">
	<unicode hex="0402"/>
	<advance width="723"/>
	<outline>
		<contour>
			<point x="351" y="0" type="line"/>
			<point x="408" y="0" type="line" smooth="yes"/>
			<point x="582" y="0"/>
			<point x="673" y="76"/>
			<point x="673" y="221" type="curve" smooth="yes"/>
			<point x="673" y="357"/>
			<point x="580" y="439"/>
			<point x="425" y="439" type="curve" smooth="yes"/>
			<point x="330" y="439"/>
			<point x="247" y="414"/>
			<point x="184" y="366" type="curve"/>
			<point x="215" y="312" type="line"/>
			<point x="263" y="347"/>
			<point x="342" y="369"/>
			<point x="419" y="369" type="curve" smooth="yes"/>
			<point x="531" y="369"/>
			<point x="596" y="313"/>
			<point x="596" y="217" type="curve" smooth="yes"/>
			<point x="596" y="117"/>
			<point x="531" y="69"/>
			<point x="394" y="69" type="curve" smooth="yes"/>
			<point x="351" y="69" type="line"/>
		</contour>
		<contour>
			<point x="151" y="0" type="line"/>
			<point x="228" y="0" type="line"/>
			<point x="228" y="656" type="line"/>
			<point x="151" y="656" type="line"/>
		</contour>
		<contour>
			<point x="10" y="646" type="line"/>
			<point x="491" y="646" type="line"/>
			<point x="491" y="715" type="line"/>
			<point x="10" y="715" type="line"/>
		</contour>
	</outline>
</glyph>
<glyph name="Lje" format="2">
	<unicode hex="0409"/>
	<advance width="1102"/>
	<outline>
		<contour>
			<point x="20" y="0" type="line"/>
			<point x="73" y="0" type="line" smooth="yes"/>
			<point x="149" y="0"/>
			<point x="189" y="35"/>
			<point x="198" y="108" type="curve" smooth="yes"/>
			<point x="269" y="671" type="line"/>
			<point x="241" y="646" type="line"/>
			<point x="568" y="646" type="line"/>
			<point x="543" y="671" type="line"/>
			<point x="543" y="0" type="line"/>
			<point x="821" y="0" type="line" smooth="yes"/>
			<point x="963" y="0"/>
			<point x="1057" y="83"/>
			<point x="1057" y="207" type="curve" smooth="yes"/>
			<point x="1057" y="333"/>
			<point x="964" y="414"/>
			<point x="821" y="414" type="curve" smooth="yes"/>
			<point x="584" y="414" type="line"/>
			<point x="584" y="345" type="line"/>
			<point x="821" y="345" type="line" smooth="yes"/>
			<point x="919" y="345"/>
			<point x="978" y="293"/>
			<point x="978" y="207" type="curve" smooth="yes"/>
			<point x="978" y="121"/>
			<point x="919" y="69"/>
			<point x="821" y="69" type="curve" smooth="yes"/>
			<point x="595" y="69" type="line"/>
			<point x="620" y="44" type="line"/>
			<point x="620" y="715" type="line"/>
			<point x="198" y="715" type="line"/>
			<point x="124" y="122" type="line" smooth="yes"/>
			<point x="119" y="86"/>
			<point x="101" y="69"/>
			<point x="65" y="69" type="curve" smooth="yes"/>
			<point x="20" y="69" type="line"/>
		</contour>
	</outline>
</glyph>
<glyph name="De" format="2">
	<unicode hex="0414"/>
	<advance width="780"/>
	<outline>
		<contour>
			<point x="72" y="30" type="line"/>
			<point x="105" y="30" type="line" smooth="yes"/>
			<point x="202" y="30"/>
			<point x="227" y="94"/>
			<point x="241" y="211" type="curve" smooth="yes"/>
			<point x="298" y="697" type="line"/>
			<point x="249" y="646" type="line"/>
			<point x="637" y="646" type="line"/>
			<point x="584" y="697" type="line"/>
			<point x="584" y="30" type="line"/>
			<point x="661" y="30" type="line"/>
			<point x="661" y="715" type="line"/>
			<point x="224" y="715" type="line"/>
			<point x="167" y="221" type="line" smooth="yes"/>
			<point x="155" y="115"/>
			<point x="134" y="69"/>
			<point x="97" y="69" type="curve" smooth="yes"/>
			<point x="72" y="69" type="line"/>
		</contour>
		<contour>
			<point x="30" y="-174" type="line"/>
			<point x="105" y="-174" type="line"/>
			<point x="105" y="55" type="line"/>
			<point x="84" y="0" type="line"/>
			<point x="723" y="0" type="line"/>
			<point x="660" y="55" type="line"/>
			<point x="660" y="-174" type="line"/>
			<point x="735" y="-174" type="line"/>
			<point x="735" y="69" type="line"/>
			<point x="30" y="69" type="line"/>
		</contour>
	</outline>
</glyph>
<glyph name="Zhe" format="2">
	<unicode hex="0416"/>
	<advance width="1000"/>
	<outline>
		<contour>
			<point x="877" y="0" type="line"/>
			<point x="982" y="0" type="line"/>
			<point x="623" y="369" type="line"/>
			<point x="960" y="715" type="line"/>
			<point x="860" y="715" type="line"/>
			<point x="528" y="371" type="line"/>
			<point x="514" y="371" type="line"/>
		</contour>
		<contour>
			<point x="18" y="0" type="line"/>
			<point x="123" y="0" type="line"/>
			<point x="486" y="371" type="line"/>
			<point x="472" y="371" type="line"/>
			<point x="140" y="715" type="line"/>
			<point x="40" y="715" type="line"/>
			<point x="377" y="369" type="line"/>
		</contour>
		<contour>
			<point x="461" y="0" type="line"/>
			<point x="538" y="0" type="line"/>
			<point x="538" y="715" type="line"/>
			<point x="461" y="715" type="line"/>
		</contour>
	</outline>
</glyph>
<glyph name="Ucyr" format="2">
	<unicode hex="0423"/>
	<advance width="660"/>
	<outline>
		<contour>
			<point x="79" y="0" type="line"/>
			<point x="160" y="0" type="line" smooth="yes"/>
			<point x="259" y="0"/>
			<point x="300" y="34"/>
			<point x="356" y="146" type="curve" smooth="yes"/>
			<point x="640" y="715" type="line"/>
			<point x="559" y="715" type="line"/>
			<point x="291" y="169" type="line" smooth="yes"/>
			<point x="253" y="91"/>
			<point x="225" y="66"/>
			<point x="160" y="66" type="curve" smooth="yes"/>
			<point x="79" y="66" type="line"/>
		</contour>
		<contour>
			<point x="306" y="161" type="line"/>
			<point x="367" y="196" type="line"/>
			<point x="101" y="715" type="line"/>
			<point x="20" y="715" type="line"/>
		</contour>
	</outline>
	<anchor name="top.UC" x="330" y="750"/>
</glyph>
<glyph name="Shcha" format="2">
	<unicode hex="0429"/>
	<advance width="1141"/>
	<outline>
		<contour>
			<point x="95" y="0" type="line"/>
			<point x="1022" y="0" type="line"/>
			<point x="1022" y="715" type="line"/>
			<point x="945" y="715" type="line"/>
			<point x="945" y="57" type="line"/>
			<point x="957" y="69" type="line"/>
			<point x="585" y="69" type="line"/>
			<point x="597" y="57" type="line"/>
			<point x="597" y="715" type="line"/>
			<point x="520" y="715" type="line"/>
			<point x="520" y="57" type="line"/>
			<point x="532" y="69" type="line"/>
			<point x="160" y="69" type="line"/>
			<point x="172" y="57" type="line"/>
			<point x="172" y="715" type="line"/>
			<point x="95" y="715" type="line"/>
		</contour>
		<contour>
			<point x="1021" y="-174" type="line"/>
			<point x="1096" y="-174" type="line"/>
			<point x="1096" y="69" type="line"/>
			<point x="1021" y="69" type="line"/>
		</contour>
	</outline>
</glyph>
<glyph name="ve" format="2">
	<unicode hex="0432"/>
	<advance width="547"/>
	<outline>
		<contour>
			<point x="80" y="0" type="line"/>
			<point x="333" y="0" type="line" smooth="yes"/>
			<point x="433" y="0"/>
			<point x="515" y="61"/>
			<point x="515" y="144" type="curve" smooth="yes"/>
			<point x="515" y="204"/>
			<point x="471" y="245"/>
			<point x="409" y="263" type="curve"/>
			<point x="410" y="254" type="line"/>
			<point x="461" y="274"/>
			<point x="492" y="312"/>
			<point x="492" y="362" type="curve" smooth="yes"/>
			<point x="492" y="440"/>
			<point x="428" y="492"/>
			<point x="330" y="492" type="curve" smooth="yes"/>
			<point x="80" y="492" type="line"/>
		</contour>
		<contour>
			<point x="154" y="16" type="line"/>
			<point x="154" y="476" type="line"/>
			<point x="109" y="429" type="line"/>
			<point x="330" y="429" type="line" smooth="yes"/>
			<point x="391" y="429"/>
			<point x="414" y="406"/>
			<point x="414" y="362" type="curve" smooth="yes"/>
			<point x="414" y="317"/>
			<point x="391" y="288"/>
			<point x="330" y="288" type="curve" smooth="yes"/>
			<point x="119" y="288" type="line"/>
			<point x="119" y="225" type="line"/>
			<point x="333" y="225" type="line" smooth="yes"/>
			<point x="397" y="225"/>
			<point x="437" y="195"/>
			<point x="437" y="144" type="curve" smooth="yes"/>
			<point x="437" y="93"/>
			<point x="397" y="63"/>
			<point x="333" y="63" type="curve" smooth="yes"/>
			<point x="108" y="63" type="line"/>
		</contour>
	</outline>
</glyph>
<glyph name="ef" format="2">
	<unicode hex="0444"/>
	<advance width="763"/>
	<outline>
		<contour>
			<point x="371" y="-16" type="curve" smooth="yes"/>
			<point x="392" y="-16" type="line" smooth="yes"/>
			<point x="591" y="-16"/>
			<point x="716" y="85"/>
			<point x="716" y="246" type="curve" smooth="yes"/>
			<point x="716" y="407"/>
			<point x="591" y="508"/>
			<point x="392" y="508" type="curve" smooth="yes"/>
			<point x="371" y="508" type="line" smooth="yes"/>
			<point x="172" y="508"/>
			<point x="47" y="407"/>
			<point x="47" y="246" type="curve" smooth="yes"/>
			<point x="47" y="85"/>
			<point x="172" y="-16"/>
		</contour>
		<contour>
			<point x="371" y="49" type="line" smooth="yes"/>
			<point x="206" y="49"/>
			<point x="125" y="114"/>
			<point x="125" y="246" type="curve" smooth="yes"/>
			<point x="125" y="378"/>
			<point x="206" y="443"/>
			<point x="371" y="443" type="curve" smooth="yes"/>
			<point x="392" y="443" type="line" smooth="yes"/>
			<point x="556" y="443"/>
			<point x="638" y="377"/>
			<point x="638" y="246" type="curve" smooth="yes"/>
			<point x="638" y="114"/>
			<point x="557" y="49"/>
			<point x="392" y="49" type="curve" smooth="yes"/>
		</contour>
		<contour>
			<point x="345" y="-204" type="line"/>
			<point x="419" y="-204" type="line"/>
			<point x="419" y="8" type="line"/>
			<point x="418" y="22" type="line"/>
			<point x="418" y="462" type="line"/>
			<point x="419" y="477" type="line"/>
			<point x="419" y="720" type="line"/>
			<point x="345" y="720" type="line"/>
			<point x="345" y="477" type="line"/>
			<point x="346" y="462" type="line"/>
			<point x="346" y="22" type="line"/>
			<point x="345" y="8" type="line"/>
		</contour>
	</outline>
</glyph>
<glyph name="shcha" format="2">
	<unicode hex="0449"/>
	<advance width="851"/>
	<outline>
		<contour>
			<point x="80" y="0" type="line"/>
			<point x="756" y="0" type="line"/>
			<point x="756" y="492" type="line"/>
			<point x="682" y="492" type="line"/>
			<point x="682" y="21" type="line"/>
			<point x="694" y="63" type="line"/>
			<point x="443" y="63" type="line"/>
			<point x="455" y="21" type="line"/>
			<point x="455" y="492" type="line"/>
			<point x="381" y="492" type="line"/>
			<point x="381" y="21" type="line"/>
			<point x="393" y="63" type="line"/>
			<point x="142" y="63" type="line"/>
			<point x="154" y="21" type="line"/>
			<point x="154" y="492" type="line"/>
			<point x="80" y="492" type="line"/>
		</contour>
		<contour>
			<point x="751" y="-128" type="line"/>
			<point x="821" y="-128" type="line"/>
			<point x="821" y="63" type="line"/>
			<point x="751" y="63" type="line"/>
		</contour>
	</outline>
</glyph>
<glyph name="ieukrain" format="2">
	<unicode hex="0454"/>
	<advance width="553"/>
	<outline>
		<contour>
			<point x="308" y="-16" type="curve" smooth="yes"/>
			<point x="397" y="-16"/>
			<point x="470" y="20"/>
			<point x="516" y="79" type="curve"/>
			<point x="463" y="128" type="line"/>
			<point x="431" y="80"/>
			<point x="380" y="49"/>
			<point x="309" y="49" type="curve" smooth="yes"/>
			<point x="197" y="49"/>
			<point x="125" y="127"/>
			<point x="125" y="247" type="curve" smooth="yes"/>
			<point x="125" y="369"/>
			<point x="196" y="443"/>
			<point x="307" y="443" type="curve" smooth="yes"/>
			<point x="378" y="443"/>
			<point x="428" y="412"/>
			<point x="460" y="364" type="curve"/>
			<point x="513" y="413" type="line"/>
			<point x="467" y="472"/>
			<point x="397" y="508"/>
			<point x="307" y="508" type="curve" smooth="yes"/>
			<point x="154" y="508"/>
			<point x="47" y="405"/>
			<point x="47" y="246" type="curve" smooth="yes"/>
			<point x="47" y="91"/>
			<point x="154" y="-16"/>
		</contour>
		<contour>
			<point x="94" y="222" type="line"/>
			<point x="412" y="222" type="line"/>
			<point x="412" y="285" type="line"/>
			<point x="94" y="285" type="line"/>
		</contour>
	</outline>
	<anchor name="bottom.LC" x="307" y="-50"/>
	<anchor name="top.LC" x="307" y="544"/>
</glyph>
<glyph name="nje" format="2">
	<unicode hex="045A"/>
	<advance width="858"/>
	<outline>
		<contour>
			<point x="430" y="0" type="line"/>
			<point x="650" y="0" type="line" smooth="yes"/>
			<point x="753" y="0"/>
			<point x="832" y="67"/>
			<point x="832" y="151" type="curve" smooth="yes"/>
			<point x="832" y="240"/>
			<point x="758" y="302"/>
			<point x="650" y="302" type="curve" smooth="yes"/>
			<point x="489" y="302" type="line"/>
			<point x="489" y="239" type="line"/>
			<point x="650" y="239" type="line" smooth="yes"/>
			<point x="716" y="239"/>
			<point x="755" y="205"/>
			<point x="755" y="151" type="curve" smooth="yes"/>
			<point x="755" y="97"/>
			<point x="716" y="63"/>
			<point x="650" y="63" type="curve" smooth="yes"/>
			<point x="492" y="63" type="line"/>
			<point x="504" y="51" type="line"/>
			<point x="504" y="492" type="line"/>
			<point x="430" y="492" type="line"/>
		</contour>
		<contour>
			<point x="80" y="0" type="line"/>
			<point x="154" y="0" type="line"/>
			<point x="154" y="492" type="line"/>
			<point x="80" y="492" type="line"/>
		</contour>
		<contour>
			<point x="139" y="239" type="line"/>
			<point x="445" y="239" type="line"/>
			<point x="445" y="302" type="line"/>
			<point x="139" y="302" type="line"/>
		</contour>
	</outline>
</glyph>
<glyph name="gheup" format="2">
	<unicode hex="0491"/>
	<advance width="453"/>
	<outline>
		<contour>
			<point x="80" y="0" type="line"/>
			<point x="154" y="0" type="line"/>
			<point x="154" y="481" type="line"/>
			<point x="112" y="429" type="line"/>
			<point x="423" y="429" type="line"/>
			<point x="423" y="612" type="line"/>
			<point x="353" y="612" type="line"/>
			<point x="353" y="450" type="line"/>
			<point x="395" y="492" type="line"/>
			<point x="80" y="492" type="line"/>
		</contour>
	</outline>
</glyph>
<glyph name="quoteright" format="2">
	<unicode hex="2019"/>
	<advance width="222"/>
	<outline>
		<contour>
			<point x="106" y="513" type="line"/>
			<point x="138" y="556"/>
			<point x="167" y="623"/>
			<point x="167" y="671" type="curve" smooth="yes"/>
			<point x="167" y="709"/>
			<point x="142" y="736"/>
			<point x="108" y="736" type="curve" smooth="yes"/>
			<point x="79" y="736"/>
			<point x="55" y="711"/>
			<point x="55" y="681" type="curve" smooth="yes"/>
			<point x="55" y="650"/>
			<point x="79" y="627"/>
			<point x="110" y="627" type="curve"/>
			<point x="102" y="644" type="line"/>
			<point x="104" y="609"/>
			<point x="85" y="555"/>
			<point x="56" y="513" type="curve"/>
		</contour>
	</outline>
</glyph>
<glyph name="guilsinglright" format="2">
	<unicode hex="203A"/>
	<advance width="318"/>
	<outline>
		<contour>
			<point x="135" y="458" type="line"/>
			<point x="52" y="458" type="line"/>
			<point x="195" y="246" type="line"/>
			<point x="52" y="34" type="line"/>
			<point x="135" y="34" type="line"/>
			<point x="278" y="246" type="line"/>
		</contour>
	</outline>
</glyph>
<glyph name="brevegravecomb.cap" format="2">
	<outline>
		<contour>
			<point x="0" y="795" type="curve" smooth="yes"/>
			<point x="88" y="795"/>
			<point x="153" y="851"/>
			<point x="161" y="934" type="curve"/>
			<point x="97" y="934" type="line"/>
			<point x="90" y="884"/>
			<point x="52" y="855"/>
			<point x="0" y="855" type="curve" smooth="yes"/>
			<point x="-52" y="855"/>
			<point x="-90" y="884"/>
			<point x="-97" y="934" type="curve"/>
			<point x="-161" y="934" type="line"/>
			<point x="-153" y="851"/>
			<point x="-88" y="795"/>
		</contour>
		<contour>
			<point x="-15" y="929" type="line"/>
			<point x="46" y="929" type="line"/>
			<point x="-61" y="1076" type="line"/>
			<point x="-149" y="1076" type="line"/>
		</contour>
	</outline>
	<anchor name="_top.UC" x="0" y="750"/>
</glyph>
<glyph name="brevetildecomb.cap" format="2">
	<outline>
		<contour>
			<point x="0" y="795" type="curve" smooth="yes"/>
			<point x="88" y="795"/>
			<point x="153" y="851"/>
			<point x="161" y="934" type="curve"/>
			<point x="97" y="934" type="line"/>
			<point x="90" y="884"/>
			<point x="52" y="855"/>
			<point x="0" y="855" type="curve" smooth="yes"/>
			<point x="-52" y="855"/>
			<point x="-90" y="884"/>
			<point x="-97" y="934" type="curve"/>
			<point x="-161" y="934" type="line"/>
			<point x="-153" y="851"/>
			<point x="-88" y="795"/>
		</contour>
		<contour>
			<point x="-114" y="966" type="line"/>
			<point x="-109" y="999"/>
			<point x="-91" y="1019"/>
			<point x="-68" y="1019" type="curve" smooth="yes"/>
			<point x="-52" y="1019"/>
			<point x="-38" y="1009"/>
			<point x="-10" y="992" type="curve" smooth="yes"/>
			<point x="28" y="969"/>
			<point x="50" y="962"/>
			<point x="76" y="962" type="curve" smooth="yes"/>
			<point x="123" y="962"/>
			<point x="161" y="998"/>
			<point x="170" y="1051" type="curve"/>
			<point x="115" y="1074" type="line"/>
			<point x="110" y="1041"/>
			<point x="92" y="1021"/>
			<point x="69" y="1021" type="curve" smooth="yes"/>
			<point x="56" y="1021"/>
			<point x="47" y="1025"/>
			<point x="11" y="1046" type="curve" smooth="yes"/>
			<point x="-30" y="1070"/>
			<point x="-50" y="1078"/>
			<point x="-75" y="1078" type="curve" smooth="yes"/>
			<point x="-122" y="1078"/>
			<point x="-160" y="1042"/>
			<point x="-169" y="989" type="curve"/>
		</contour>
	</outline>
	<anchor name="_top.UC" x="0" y="750"/>
</glyph>
<glyph name="brevetildecomb" format="2">
	<outline>
		<contour>
			<point x="0" y="582" type="curve" smooth="yes"/>
			<point x="79" y="582"/>
			<point x="143" y="641"/>
			<point x="151" y="732" type="curve"/>
			<point x="89" y="732" type="line"/>
			<point x="81" y="671"/>
			<point x="45" y="639"/>
			<point x="0" y="639" type="curve" smooth="yes"/>
			<point x="-45" y="639"/>
			<point x="-81" y="671"/>
			<point x="-89" y="732" type="curve"/>
			<point x="-151" y="732" type="line"/>
			<point x="-143" y="641"/>
			<point x="-79" y="582"/>
		</contour>
		<contour>
			<point x="-99" y="773" type="line"/>
			<point x="-94" y="808"/>
			<point x="-80" y="827"/>
			<point x="-59" y="827" type="curve" smooth="yes"/>
			<point x="-48" y="827"/>
			<point x="-38" y="821"/>
			<point x="-12" y="801" type="curve" smooth="yes"/>
			<point x="16" y="780"/>
			<point x="35" y="771"/>
			<point x="64" y="771" type="curve" smooth="yes"/>
			<point x="107" y="771"/>
			<point x="136" y="802"/>
			<point x="145" y="858" type="curve"/>
			<point x="98" y="878" type="line"/>
			<point x="93" y="843"/>
			<point x="79" y="824"/>
			<point x="58" y="824" type="curve" smooth="yes"/>
			<point x="47" y="824"/>
			<point x="36" y="830"/>
			<point x="11" y="850" type="curve" smooth="yes"/>
			<point x="-14" y="870"/>
			<point x="-36" y="880"/>
			<point x="-65" y="880" type="curve" smooth="yes"/>
			<point x="-108" y="880"/>
			<point x="-137" y="849"/>
			<point x="-146" y="793" type="curve"/>
		</contour>
	</outline>
	<anchor name="_top.LC" x="0" y="544"/>
</glyph>
<glyph name="cedillacomb.cap" format="2">
	<outline>
		<contour>
			<point x="-105" y="-219" type="line"/>
			<point x="-82" y="-241"/>
			<point x="-48" y="-255"/>
			<point x="-10" y="-255" type="curve" smooth="yes"/>
			<point x="71" y="-255"/>
			<point x="114" y="-211"/>
			<point x="114" y="-154" type="curve" smooth="yes"/>
			<point x="114" y="-96"/>
			<point x="61" y="-54"/>
			<point x="-11" y="-54" type="curve"/>
			<point x="15" y="-74" type="line"/>
			<point x="29" y="10" type="line"/>
			<point x="-24" y="10" type="line"/>
			<point x="-50" y="-115" type="line"/>
			<point x="-38" y="-111"/>
			<point x="-26" y="-110"/>
			<point x="-14" y="-110" type="curve" smooth="yes"/>
			<point x="25" y="-110"/>
			<point x="47" y="-130"/>
			<point x="47" y="-155" type="curve" smooth="yes"/>
			<point x="47" y="-181"/>
			<point x="25" y="-199"/>
			<point x="-5" y="-199" type="curve" smooth="yes"/>
			<point x="-32" y="-199"/>
			<point x="-58" y="-187"/>
			<point x="-73" y="-170" type="curve"/>
		</contour>
	</outline>
	<anchor name="_bottom.UC" x="0" y="-50"/>
</glyph>
<glyph name="che.loclBGR" format="2">
	<advance width="558"/>
	<outline>
		<contour>
			<point x="231" y="167" type="curve" smooth="yes"/>
			<point x="351" y="167"/>
			<point x="432" y="254"/>
			<point x="423" y="375" type="curve"/>
			<point x="408" y="396" type="line"/>
			<point x="400" y="298"/>
			<point x="333" y="232"/>
			<point x="245" y="232" type="curve" smooth="yes"/>
			<point x="167" y="232"/>
			<point x="121" y="283"/>
			<point x="121" y="381" type="curve" smooth="yes"/>
			<point x="121" y="492" type="line"/>
			<point x="47" y="492" type="line"/>
			<point x="47" y="373" type="line" smooth="yes"/>
			<point x="47" y="239"/>
			<point x="119" y="167"/>
		</contour>
		<contour>
			<point x="404" y="0" type="line"/>
			<point x="478" y="0" type="line"/>
			<point x="478" y="492" type="line"/>
			<point x="404" y="492" type="line"/>
		</contour>
	</outline>
</glyph>
<glyph name="dieresiscomb.narrow" format="2">
	<outline>
		<contour>
			<point x="81" y="624" type="curve" smooth="yes"/>
			<point x="111" y="624"/>
			<point x="135" y="648"/>
			<point x="135" y="677" type="curve" smooth="yes"/>
			<point x="135" y="707"/>
			<point x="111" y="731"/>
			<point x="81" y="731" type="curve" smooth="yes"/>
			<point x="51" y="731"/>
			<point x="27" y="707"/>
			<point x="27" y="677" type="curve" smooth="yes"/>
			<point x="27" y="648"/>
			<point x="51" y="624"/>
		</contour>
		<contour>
			<point x="-81" y="624" type="curve" smooth="yes"/>
			<point x="-51" y="624"/>
			<point x="-27" y="648"/>
			<point x="-27" y="677" type="curve" smooth="yes"/>
			<point x="-27" y="707"/>
			<point x="-51" y="731"/>
			<point x="-81" y="731" type="curve" smooth="yes"/>
			<point x="-111" y="731"/>
			<point x="-135" y="707"/>
			<point x="-135" y="677" type="curve" smooth="yes"/>
			<point x="-135" y="648"/>
			<point x="-111" y="624"/>
		</contour>
	</outline>
	<anchor name="_top.LC" x="0" y="544"/>
</glyph>
<glyph name="dotbelowcomb.cap" format="2">
	<outline>
		<contour>
			<point x="0" y="-222" type="curve" smooth="yes"/>
			<point x="33" y="-222"/>
			<point x="57" y="-198"/>
			<point x="57" y="-166" type="curve" smooth="yes"/>
			<point x="57" y="-133"/>
			<point x="33" y="-109"/>
			<point x="0" y="-109" type="curve" smooth="yes"/>
			<point x="-33" y="-109"/>
			<point x="-57" y="-133"/>
			<point x="-57" y="-166" type="curve" smooth="yes"/>
			<point x="-57" y="-198"/>
			<point x="-33" y="-222"/>
		</contour>
	</outline>
	<anchor name="_bottom.UC" x="0" y="-50"/>
</glyph>
<glyph name="eight.dnom" format="2">
	<advance width="423"/>
	<outline>
		<contour>
			<point x="212" y="-9" type="curve" smooth="yes"/>
			<point x="305" y="-9"/>
			<point x="372" y="40"/>
			<point x="372" y="111" type="curve" smooth="yes"/>
			<point x="372" y="181"/>
			<point x="307" y="229"/>
			<point x="212" y="229" type="curve" smooth="yes"/>
			<point x="117" y="229"/>
			<point x="51" y="181"/>
			<point x="51" y="111" type="curve" smooth="yes"/>
			<point x="51" y="40"/>
			<point x="119" y="-9"/>
		</contour>
		<contour>
			<point x="212" y="201" type="curve" smooth="yes"/>
			<point x="297" y="201"/>
			<point x="356" y="247"/>
			<point x="356" y="308" type="curve" smooth="yes"/>
			<point x="356" y="370"/>
			<point x="295" y="417"/>
			<point x="212" y="417" type="curve" smooth="yes"/>
			<point x="128" y="417"/>
			<point x="67" y="370"/>
			<point x="67" y="308" type="curve" smooth="yes"/>
			<point x="67" y="247"/>
			<point x="126" y="201"/>
		</contour>
		<contour>
			<point x="212" y="48" type="curve" smooth="yes"/>
			<point x="160" y="48"/>
			<point x="119" y="74"/>
			<point x="119" y="113" type="curve" smooth="yes"/>
			<point x="119" y="153"/>
			<point x="160" y="183"/>
			<point x="212" y="183" type="curve" smooth="yes"/>
			<point x="264" y="183"/>
			<point x="304" y="153"/>
			<point x="304" y="114" type="curve" smooth="yes"/>
			<point x="304" y="74"/>
			<point x="264" y="48"/>
		</contour>
		<contour>
			<point x="212" y="240" type="curve" smooth="yes"/>
			<point x="169" y="240"/>
			<point x="135" y="267"/>
			<point x="135" y="301" type="curve" smooth="yes"/>
			<point x="135" y="336"/>
			<point x="169" y="360"/>
			<point x="212" y="360" type="curve" smooth="yes"/>
			<point x="255" y="360"/>
			<point x="288" y="336"/>
			<point x="288" y="302" type="curve" smooth="yes"/>
			<point x="288" y="267"/>
			<point x="255" y="240"/>
		</contour>
	</outline>
</glyph>
<glyph name="hungarumlautcomb.cap" format="2">
	<outline>
		<contour>
			<point x="96" y="943" type="line"/>
			<point x="-2" y="943" type="line"/>
			<point x="-136" y="799" type="line"/>
			<point x="-59" y="799" type="line"/>
		</contour>
		<contour>
			<point x="272" y="943" type="line"/>
			<point x="174" y="943" type="line"/>
			<point x="40" y="799" type="line"/>
			<point x="117" y="799" type="line"/>
		</contour>
	</outline>
	<anchor name="_top.UC" x="0" y="750"/>
</glyph>
<glyph name="ogonekcomb.round.cap" format="2">
	<outline>
		<contour>
			<point x="87" y="-179" type="line"/>
			<point x="76" y="-182"/>
			<point x="65" y="-183"/>
			<point x="58" y="-183" type="curve" smooth="yes"/>
			<point x="25" y="-183"/>
			<point x="-1" y="-163"/>
			<point x="-1" y="-123" type="curve" smooth="yes"/>
			<point x="-1" y="-71"/>
			<point x="42" y="-18"/>
			<point x="118" y="23" type="curve"/>
			<point x="59" y="22" type="line"/>
			<point x="-36" y="-28"/>
			<point x="-68" y="-78"/>
			<point x="-68" y="-138" type="curve" smooth="yes"/>
			<point x="-68" y="-208"/>
			<point x="-18" y="-248"/>
			<point x="48" y="-248" type="curve" smooth="yes"/>
			<point x="61" y="-248"/>
			<point x="74" y="-247"/>
			<point x="87" y="-244" type="curve"/>
		</contour>
	</outline>
	<anchor name="_ogonek.UC.round" x="0" y="-30"/>
</glyph>
<glyph name="one.dnom" format="2">
	<advance width="366"/>
	<outline>
		<contour>
			<point x="189" y="411" type="line"/>
			<point x="80" y="326" type="line"/>
			<point x="80" y="254" type="line"/>
			<point x="180" y="331" type="line"/>
			<point x="180" y="0" type="line"/>
			<point x="247" y="0" type="line"/>
			<point x="247" y="411" type="line"/>
		</contour>
	</outline>
</glyph>
<glyph name="questiondown.case" format="2">
	<advance width="561"/>
	<outline>
		<contour>
			<point x="277" y="501" type="line"/>
			<point x="277" y="431"/>
			<point x="254" y="390"/>
			<point x="191" y="350" type="curve" smooth="yes"/>
			<point x="105" y="295"/>
			<point x="65" y="240"/>
			<point x="65" y="168" type="curve" smooth="yes"/>
			<point x="65" y="57"/>
			<point x="159" y="-26"/>
			<point x="286" y="-26" type="curve" smooth="yes"/>
			<point x="380" y="-26"/>
			<point x="462" y="19"/>
			<point x="524" y="104" type="curve"/>
			<point x="471" y="153" type="line"/>
			<point x="423" y="78"/>
			<point x="360" y="39"/>
			<point x="287" y="39" type="curve" smooth="yes"/>
			<point x="202" y="39"/>
			<point x="143" y="92"/>
			<point x="143" y="170" type="curve" smooth="yes"/>
			<point x="143" y="218"/>
			<point x="167" y="257"/>
			<point x="218" y="293" type="curve" smooth="yes"/>
			<point x="309" y="349"/>
			<point x="347" y="414"/>
			<point x="339" y="501" type="curve"/>
		</contour>
		<contour>
			<point x="253" y="659" type="curve" smooth="yes"/>
			<point x="253" y="628"/>
			<point x="278" y="603"/>
			<point x="309" y="603" type="curve" smooth="yes"/>
			<point x="340" y="603"/>
			<point x="365" y="628"/>
			<point x="365" y="659" type="curve" smooth="yes"/>
			<point x="365" y="690"/>
			<point x="340" y="715"/>
			<point x="309" y="715" type="curve" smooth="yes"/>
			<point x="278" y="715"/>
			<point x="253" y="690"/>
		</contour>
	</outline>
</glyph>
<glyph name="seven.dnom" format="2">
	<advance width="407"/>
	<outline>
		<contour>
			<point x="352" y="408" type="line"/>
			<point x="55" y="408" type="line"/>
			<point x="55" y="350" type="line"/>
			<point x="281" y="350" type="line"/>
			<point x="61" y="0" type="line"/>
			<point x="134" y="0" type="line"/>
			<point x="352" y="350" type="line"/>
		</contour>
	</outline>
</glyph>
<glyph name="two.dnom" format="2">
	<advance width="428"/>
	<outline>
		<contour>
			<point x="350" y="0" type="line"/>
			<point x="350" y="58" type="line"/>
			<point x="129" y="58" type="line"/>
			<point x="134" y="45" type="line"/>
			<point x="166" y="72"/>
			<point x="193" y="95"/>
			<point x="238" y="136" type="curve" smooth="yes"/>
			<point x="306" y="197"/>
			<point x="342" y="240"/>
			<point x="342" y="295" type="curve" smooth="yes"/>
			<point x="342" y="364"/>
			<point x="287" y="417"/>
			<point x="205" y="417" type="curve" smooth="yes"/>
			<point x="143" y="417"/>
			<point x="88" y="387"/>
			<point x="47" y="330" type="curve"/>
			<point x="96" y="286" type="line"/>
			<point x="123" y="331"/>
			<point x="161" y="359"/>
			<point x="203" y="359" type="curve" smooth="yes"/>
			<point x="246" y="359"/>
			<point x="274" y="329"/>
			<point x="274" y="295" type="curve" smooth="yes"/>
			<point x="274" y="258"/>
			<point x="246" y="225"/>
			<point x="197" y="181" type="curve" smooth="yes"/>
			<point x="52" y="50" type="line"/>
			<point x="52" y="0" type="line"/>
		</contour>
	</outline>
</glyph>
<glyph name="ve.loclBGR" format="2">
	<advance width="584"/>
	<outline>
		<contour>
			<point x="297" y="-16" type="curve" smooth="yes"/>
			<point x="444" y="-16"/>
			<point x="542" y="72"/>
			<point x="542" y="195" type="curve" smooth="yes"/>
			<point x="542" y="296"/>
			<point x="476" y="372"/>
			<point x="378" y="384" type="curve"/>
			<point x="378" y="377" type="line"/>
			<point x="459" y="390"/>
			<point x="516" y="459"/>
			<point x="516" y="545" type="curve" smooth="yes"/>
			<point x="516" y="655"/>
			<point x="423" y="736"/>
			<point x="294" y="736" type="curve" smooth="yes"/>
			<point x="155" y="736"/>
			<point x="60" y="641"/>
			<point x="60" y="508" type="curve" smooth="yes"/>
			<point x="60" y="202" type="line" smooth="yes"/>
			<point x="60" y="67"/>
			<point x="154" y="-16"/>
		</contour>
		<contour>
			<point x="300" y="49" type="curve" smooth="yes"/>
			<point x="198" y="49"/>
			<point x="134" y="113"/>
			<point x="134" y="221" type="curve" smooth="yes"/>
			<point x="134" y="498" type="line" smooth="yes"/>
			<point x="134" y="606"/>
			<point x="193" y="671"/>
			<point x="293" y="671" type="curve" smooth="yes"/>
			<point x="382" y="671"/>
			<point x="441" y="619"/>
			<point x="441" y="541" type="curve" smooth="yes"/>
			<point x="441" y="460"/>
			<point x="376" y="406"/>
			<point x="280" y="406" type="curve" smooth="yes"/>
			<point x="110" y="406" type="line"/>
			<point x="110" y="345" type="line"/>
			<point x="274" y="345" type="line" smooth="yes"/>
			<point x="394" y="345"/>
			<point x="465" y="291"/>
			<point x="465" y="199" type="curve" smooth="yes"/>
			<point x="465" y="111"/>
			<point x="401" y="49"/>
		</contour>
	</outline>
</glyph>
